<?xml version="1.0" encoding="UTF-8" standalone="no"?>
<!DOCTYPE svg PUBLIC "-//W3C//DTD SVG 1.1//EN" "http://www.w3.org/Graphics/SVG/1.1/DTD/svg11.dtd">
<svg width="100%" height="100%" viewBox="0 0 97 96" version="1.1" xmlns="http://www.w3.org/2000/svg" xmlns:xlink="http://www.w3.org/1999/xlink" xml:space="preserve" xmlns:serif="http://www.serif.com/" style="fill-rule:evenodd;clip-rule:evenodd;stroke-linejoin:round;stroke-miterlimit:2;">
    <g transform="matrix(4.16667,0,0,4.16667,-1333.33,-107.897)">
        <g id="Menu--wide-" serif:id="Menu (wide)" transform="matrix(0.529029,1.2326e-32,6.52078e-33,1,-590.46,-984.105)">
            <g transform="matrix(1,0,0,1,151.3,-321)">
                <path d="M1612.01,1351C1612.46,1351 1612.89,1351.09 1613.2,1351.26C1613.52,1351.43 1613.7,1351.66 1613.7,1351.89C1613.7,1352.28 1613.7,1352.72 1613.7,1353.11C1613.7,1353.34 1613.52,1353.57 1613.2,1353.74C1612.89,1353.91 1612.46,1354 1612.01,1354C1605.01,1354 1578.39,1354 1571.39,1354C1570.94,1354 1570.51,1353.91 1570.2,1353.74C1569.88,1353.57 1569.7,1353.34 1569.7,1353.11C1569.7,1352.72 1569.7,1352.28 1569.7,1351.89C1569.7,1351.66 1569.88,1351.43 1570.2,1351.26C1570.51,1351.09 1570.94,1351 1571.39,1351C1578.39,1351 1605.01,1351 1612.01,1351Z" style="fill:rgb(17,51,94);"/>
            </g>
            <g transform="matrix(1,0,0,1,151.3,-320)">
                <path d="M1569.7,1340.89C1569.7,1340.66 1569.88,1340.43 1570.2,1340.26C1570.51,1340.09 1570.94,1340 1571.39,1340C1578.39,1340 1605.01,1340 1612.01,1340C1612.46,1340 1612.89,1340.09 1613.2,1340.26C1613.52,1340.43 1613.7,1340.66 1613.7,1340.89C1613.7,1341.28 1613.7,1341.72 1613.7,1342.11C1613.7,1342.34 1613.52,1342.57 1613.2,1342.74C1612.89,1342.91 1612.46,1343 1612.01,1343C1605.01,1343 1578.39,1343 1571.39,1343C1570.94,1343 1570.51,1342.91 1570.2,1342.74C1569.88,1342.57 1569.7,1342.34 1569.7,1342.11C1569.7,1341.72 1569.7,1341.28 1569.7,1340.89Z" style="fill:rgb(17,51,94);"/>
            </g>
            <g transform="matrix(1,0,0,1,151.3,-319)">
                <path d="M1569.7,1329.89C1569.7,1329.66 1569.88,1329.43 1570.2,1329.26C1570.51,1329.09 1570.94,1329 1571.39,1329C1578.39,1329 1605.01,1329 1612.01,1329C1612.46,1329 1612.89,1329.09 1613.2,1329.26C1613.52,1329.43 1613.7,1329.66 1613.7,1329.89C1613.7,1330.28 1613.7,1330.72 1613.7,1331.11C1613.7,1331.34 1613.52,1331.57 1613.2,1331.74C1612.89,1331.91 1612.46,1332 1612.01,1332C1605.01,1332 1578.39,1332 1571.39,1332C1570.94,1332 1570.51,1331.91 1570.2,1331.74C1569.88,1331.57 1569.7,1331.34 1569.7,1331.11C1569.7,1330.72 1569.7,1330.28 1569.7,1329.89Z" style="fill:rgb(17,51,94);"/>
            </g>
        </g>
    </g>
</svg>
