<?xml version="1.0" encoding="UTF-8" standalone="no"?>
<!DOCTYPE svg PUBLIC "-//W3C//DTD SVG 1.1//EN" "http://www.w3.org/Graphics/SVG/1.1/DTD/svg11.dtd">
<svg width="100%" height="100%" viewBox="0 0 59 49" version="1.1" xmlns="http://www.w3.org/2000/svg" xmlns:xlink="http://www.w3.org/1999/xlink" xml:space="preserve" xmlns:serif="http://www.serif.com/" style="fill-rule:evenodd;clip-rule:evenodd;stroke-linejoin:round;stroke-miterlimit:2;">
    <g transform="matrix(4.16667,0,0,4.16667,-220.989,-1808.89)">
        <g transform="matrix(0.408855,0,0,0.408855,33.0403,293.829)">
            <path d="M62.511,366.765L62.511,365.774L51.007,365.771C51.011,363.961 51.02,359.186 51.001,354.932C50.983,350.826 50.936,347.206 50.936,347.206C50.936,346.83 50.631,346.525 50.255,346.525C49.879,346.525 49.574,346.83 49.574,347.206C49.574,347.206 49.526,350.826 49.508,354.932C49.485,360.31 49.505,366.521 49.505,366.521L49.505,367.271L62.204,367.268C62.709,367.75 63.295,368.13 63.93,368.392C64.603,368.671 65.33,368.818 66.072,368.818C66.815,368.818 67.542,368.671 68.215,368.393C68.792,368.154 69.329,367.818 69.802,367.396L82.512,367.399L82.512,366.649C82.512,366.649 82.525,361.772 82.508,356.895C82.491,352.018 82.443,347.142 82.443,347.142C82.443,346.766 82.138,346.461 81.762,346.461C81.386,346.461 81.081,346.766 81.081,347.142C81.081,347.142 81.033,352.018 81.016,356.895C81.002,360.622 81.007,364.349 81.01,365.899C81.01,365.899 69.505,365.902 69.505,365.902L69.505,367.396L68.975,366.123C68.591,366.508 68.137,366.809 67.644,367.013C67.15,367.218 66.617,367.326 66.072,367.326C65.528,367.326 64.994,367.218 64.501,367.013C64.008,366.809 63.554,366.508 63.169,366.123C63.112,366.065 63.071,366.025 63.052,366.006C62.635,365.588 62.532,366.253 62.511,366.765Z" style="fill:rgb(17,51,94);"/>
        </g>
        <g transform="matrix(0.408855,0,0,0.408855,33.0403,293.829)">
            <path d="M53.165,343.467C53.165,343.467 63.088,342.568 65.206,346.009C65.297,350.394 65.431,365.462 65.431,365.462C65.431,365.462 59.802,361.632 53.588,363.207C53.024,359.964 53.165,343.467 53.165,343.467Z" style="fill:rgb(17,51,94);"/>
        </g>
        <g transform="matrix(0.408855,0,0,0.408855,33.0403,293.829)">
            <g transform="matrix(-1.00893,0,0,1,132.857,-0.281994)">
                <path d="M53.165,343.467C53.165,343.467 63.404,343.012 65.521,346.452C65.516,350.591 65.431,365.462 65.431,365.462C65.431,365.462 59.802,361.632 53.588,363.207C53.024,359.964 53.165,343.467 53.165,343.467Z" style="fill:rgb(17,51,94);"/>
            </g>
        </g>
    </g>
</svg>
