<?xml version="1.0" encoding="UTF-8" standalone="no"?>
<!DOCTYPE svg PUBLIC "-//W3C//DTD SVG 1.1//EN" "http://www.w3.org/Graphics/SVG/1.1/DTD/svg11.dtd">
<svg width="100%" height="100%" viewBox="0 0 59 54" version="1.1" xmlns="http://www.w3.org/2000/svg" xmlns:xlink="http://www.w3.org/1999/xlink" xml:space="preserve" xmlns:serif="http://www.serif.com/" style="fill-rule:evenodd;clip-rule:evenodd;stroke-linejoin:round;stroke-miterlimit:2;">
    <g transform="matrix(4.16667,0,0,4.16667,-218.921,-2335.68)">
        <g transform="matrix(0.43938,0,0,0.43938,31.5182,330.151)">
            <path d="M47.846,529.815L58.318,524.616L69.83,529.518L79.783,524.468L79.783,548.086L70.053,552.691L58.244,547.64L47.921,553.508L47.846,529.815ZM49.033,530.548L58.352,526.032C58.352,526.032 69.878,530.948 69.878,530.948L78.488,526.578C78.488,526.578 78.493,547.27 78.493,547.27C78.493,547.27 70.027,551.274 70.027,551.274C70.027,551.274 58.163,546.196 58.163,546.196L49.211,551.283C49.205,549.511 49.193,546.863 49.172,544.027C49.131,538.658 49.058,532.613 49.033,530.548Z" style="fill:rgb(17,51,94);"/>
        </g>
        <g transform="matrix(0.43938,0,0,0.43938,31.5182,330.151)">
            <path d="M58.542,525.897C58.866,525.229 58.616,525.023 58.318,525.023C57.969,525.023 57.685,525.306 57.685,525.656L58.318,526.29C58.318,526.29 57.685,525.658 57.685,525.658L57.624,527.78C57.615,528.391 57.621,529.11 57.62,529.904C57.617,533.901 57.589,539.806 57.623,543.499C57.642,545.535 57.685,546.897 57.685,546.897C57.685,547.247 57.969,547.531 58.318,547.531C58.668,547.531 58.952,547.247 58.952,546.897C58.952,546.897 58.995,545.535 59.014,543.499C59.048,539.806 59.02,533.901 59.017,529.904C59.016,529.11 59.022,528.391 59.013,527.78C58.999,526.864 58.968,526.191 58.959,525.869C58.956,525.773 58.954,525.708 58.953,525.677C58.942,525.331 58.72,525.611 58.542,525.897Z" style="fill:rgb(17,51,94);"/>
        </g>
        <g transform="matrix(0.43938,0,0,0.43938,31.5182,330.151)">
            <g transform="matrix(1,0,0,1,11.7347,4.9761)">
                <path d="M58.542,525.897C58.866,525.229 58.616,525.023 58.318,525.023C57.969,525.023 57.685,525.306 57.685,525.656L58.318,526.29C58.318,526.29 57.685,525.658 57.685,525.658L57.624,527.78C57.615,528.391 57.621,529.11 57.62,529.904C57.617,533.901 57.589,539.806 57.623,543.499C57.642,545.535 57.685,546.897 57.685,546.897C57.685,547.247 57.969,547.531 58.318,547.531C58.668,547.531 58.952,547.247 58.952,546.897C58.952,546.897 58.995,545.535 59.014,543.499C59.048,539.806 59.02,533.901 59.017,529.904C59.016,529.11 59.022,528.391 59.013,527.78C58.999,526.864 58.968,526.191 58.959,525.869C58.956,525.773 58.954,525.708 58.953,525.677C58.942,525.331 58.72,525.611 58.542,525.897Z" style="fill:rgb(17,51,94);"/>
            </g>
        </g>
    </g>
</svg>
