<?xml version="1.0" encoding="UTF-8" standalone="no"?>
<!DOCTYPE svg PUBLIC "-//W3C//DTD SVG 1.1//EN" "http://www.w3.org/Graphics/SVG/1.1/DTD/svg11.dtd">
<svg width="100%" height="100%" viewBox="0 0 54 81" version="1.1" xmlns="http://www.w3.org/2000/svg" xmlns:xlink="http://www.w3.org/1999/xlink" xml:space="preserve" xmlns:serif="http://www.serif.com/" style="fill-rule:evenodd;clip-rule:evenodd;stroke-linejoin:round;stroke-miterlimit:2;">
    <g transform="matrix(4.16667,0,0,4.16667,-981.31,-3162.77)">
        <g transform="matrix(0.0354881,0,0,0.0354881,207.925,749.705)">
            <path d="M963.86,263.76C951.681,263.504 939.507,264.468 927.519,266.637C832.455,283.838 767.244,372.114 778.747,468.033C781.661,491.974 789.287,515.099 801.188,536.075L802.482,538.558L802.589,538.744C802.589,538.744 868.381,652.705 914.903,733.289C924.209,749.407 941.408,759.335 960.019,759.332C978.631,759.328 995.826,749.394 1005.13,733.273C1052.09,651.859 1118.88,536.074 1118.88,536.074C1134.4,508.692 1142.57,477.766 1142.61,446.296L1137.43,403.134C1117.87,322.7 1046.63,265.494 963.863,263.755L963.86,263.76ZM1053.57,445.247C1053.57,494.608 1014.62,535.959 965.344,538.903C916.072,541.846 872.473,505.428 866.596,456.419C860.721,407.41 894.476,361.717 943.048,352.93C991.62,344.143 1039.24,375.114 1050.91,423.075L1053.57,445.247Z" style="fill:rgb(17,51,94);fill-rule:nonzero;"/>
        </g>
    </g>
</svg>
