<?xml version="1.0" encoding="UTF-8" standalone="no"?>
<!DOCTYPE svg PUBLIC "-//W3C//DTD SVG 1.1//EN" "http://www.w3.org/Graphics/SVG/1.1/DTD/svg11.dtd">
<svg width="100%" height="100%" viewBox="0 0 2500 2500" version="1.1" xmlns="http://www.w3.org/2000/svg" xmlns:xlink="http://www.w3.org/1999/xlink" xml:space="preserve" xmlns:serif="http://www.serif.com/" style="fill-rule:evenodd;clip-rule:evenodd;stroke-linejoin:round;stroke-miterlimit:2;">
    <g transform="matrix(3.39144,0,0,3.39144,-2696.58,-543.034)">
        <path d="M1028.03,390.787C1094.33,422.335 1128.93,448.696 1213.68,545.195C1245.69,577.21 1292.55,627.21 1358.43,639.486C1432.58,653.307 1491.66,608.243 1493.71,599.536C1493.71,599.536 1452.06,665.332 1358.9,665.332C1297.11,665.332 1218.93,605.145 1171.96,547.851C1118.38,482.494 1072.05,454.216 1072.05,454.216L1072.05,566.401L1028.97,591.489L1028.03,390.787Z" style="fill:url(#_Linear1);"/>
    </g>
    <g transform="matrix(-3.39144,0,0,3.39144,5238.02,-541.749)">
        <path d="M1028.03,390.787C1094.33,422.335 1128.93,448.696 1213.68,545.195C1245.69,577.21 1292.55,627.21 1358.43,639.486C1432.58,653.307 1491.66,608.243 1493.71,599.536C1493.71,599.536 1452.06,665.332 1358.9,665.332C1297.11,665.332 1218.93,605.145 1171.96,547.851C1118.38,482.494 1072.05,454.216 1072.05,454.216L1072.05,566.401L1028.97,591.489L1028.03,390.787Z" style="fill:url(#_Linear2);"/>
    </g>
    <g transform="matrix(3.39144,0,0,3.39144,-2696.58,-543.034)">
        <path d="M1323.2,424.085L1323.2,388.397C1419.73,365.999 1491.57,408.853 1517.09,494.219C1525.12,521.075 1516.98,562.711 1506.36,583.114C1477.73,638.135 1391.82,651.412 1345.45,636.542C1413.96,643.493 1495.03,583.705 1484.14,506.336C1467.88,423.845 1389.41,399.107 1323.2,424.085" style="fill:url(#_Linear3);"/>
    </g>
    <g transform="matrix(-3.39144,0,0,3.39144,5239.24,-541.428)">
        <path d="M1323.7,424.021L1323.7,388.333C1420.23,365.935 1491.57,408.853 1517.09,494.219C1525.12,521.075 1515.93,563.664 1505.31,584.067C1476.68,639.088 1391.6,651.293 1345.23,636.423C1413.75,643.374 1495.03,583.705 1484.14,506.336C1467.88,423.845 1389.9,399.044 1323.7,424.021" style="fill:url(#_Linear4);"/>
    </g>
    <g transform="matrix(-3.39144,0,0,3.39144,5239.24,-541.428)">
        <path d="M1323.7,424.021L1323.7,388.333C1420.23,365.935 1491.57,408.853 1517.09,494.219C1507.04,477.445 1494.72,455.324 1471.77,441.185C1435.3,418.719 1399.83,417.201 1383.94,416.3C1359.21,414.897 1355.25,413.943 1323.7,424.021" style="fill:url(#_Linear5);"/>
    </g>
    <g transform="matrix(3.39144,0,0,3.39144,-2696.89,-544.186)">
        <path d="M1323.2,424.085L1323.2,388.397C1419.73,365.999 1491.57,408.853 1517.09,494.219C1507.04,477.445 1494.72,455.324 1471.77,441.185C1435.3,418.719 1399.83,417.201 1383.94,416.3C1359.21,414.897 1354.76,414.007 1323.2,424.085" style="fill:url(#_Linear6);"/>
    </g>
    <g transform="matrix(3.07631,0,0,3.09337,-2317.71,-391.406)">
        <path d="M1144.46,574.399C1146.5,572.486 1153.94,563.995 1163.73,552.935C1167.67,548.475 1171.99,543.596 1176.49,538.562C1178.25,536.593 1180.03,534.6 1181.83,532.596C1183.61,530.616 1185.4,528.629 1187.19,526.642C1190.8,522.626 1194.42,518.63 1197.97,514.799C1201.2,511.308 1204.36,507.949 1207.4,504.822C1212.94,499.105 1218.04,494.164 1222.3,490.617C1216.74,495.03 1209.72,501.668 1202.19,509.344C1198.08,513.531 1193.82,518.023 1189.57,522.631C1187.1,525.317 1184.62,528.043 1182.19,530.771C1178.45,534.953 1174.8,539.137 1171.32,543.162C1168.5,546.413 1165.8,549.565 1163.26,552.539C1153.69,563.771 1146.46,572.444 1144.46,574.399Z" style="fill:rgb(247,240,223);"/>
    </g>
    <g transform="matrix(3.07631,0,0,3.09337,-3454.03,-612.301)">
        <path d="M1153.15,564.766C1162.01,549.512 1169.94,537.616 1178.68,527.809C1184.77,520.972 1191.27,515.156 1198.78,509.93C1203.47,506.659 1208.56,503.613 1214.2,500.701C1219.61,497.885 1225.38,495.393 1231.31,493.174C1240.1,489.885 1249.25,487.216 1258.21,485.138C1264.51,483.676 1270.72,482.498 1276.62,481.593C1287.35,479.948 1297.09,479.196 1304.64,479.245C1297.08,479.082 1287.32,479.676 1276.56,481.172C1270.63,481.996 1264.39,483.091 1258.06,484.487C1249.05,486.475 1239.82,489.055 1230.99,492.311C1225.01,494.513 1219.21,497.037 1213.76,499.863C1208.1,502.824 1202.99,505.908 1198.28,509.235C1190.77,514.55 1184.28,520.469 1178.23,527.419C1169.59,537.34 1161.83,549.372 1153.15,564.766Z" style="fill:rgb(244,212,140);"/>
    </g>
    <g transform="matrix(-3.07631,0,0,3.09337,5995.88,-614.735)">
        <path d="M1153.15,564.766C1161.84,549.381 1169.61,537.356 1178.26,527.442C1184.31,520.498 1190.8,514.586 1198.31,509.276C1203.02,505.952 1208.13,502.87 1213.79,499.912C1219.24,497.087 1225.03,494.565 1231.01,492.361C1239.84,489.104 1249.06,486.518 1258.07,484.525C1264.4,483.126 1270.63,482.025 1276.56,481.196C1287.32,479.692 1297.08,479.089 1304.64,479.245C1297.09,479.19 1287.35,479.932 1276.62,481.568C1270.71,482.469 1264.51,483.642 1258.2,485.1C1249.24,487.173 1240.08,489.836 1231.29,493.123C1225.36,495.342 1219.59,497.835 1214.18,500.652C1208.54,503.566 1203.45,506.615 1198.75,509.889C1191.24,515.12 1184.74,520.942 1178.65,527.786C1169.91,537.6 1162,549.504 1153.15,564.766Z" style="fill:rgb(244,212,140);"/>
    </g>
    <g transform="matrix(3.07631,0,0,3.09337,-1677.42,10.5217)">
        <path d="M1151.55,518.75C1151.36,518.966 1158.76,521.387 1171.17,523.172C1179.32,524.345 1189.63,525.246 1201.36,525.064C1206.69,524.982 1212.31,524.676 1218.16,524.069C1223.53,523.51 1229.1,522.701 1234.8,521.571C1240.14,520.513 1245.6,519.176 1251.13,517.514C1256.36,515.941 1261.65,514.074 1266.97,511.881C1273.01,509.394 1279.08,506.486 1285.12,503.096C1293.51,498.394 1301.86,492.762 1310.03,486.059C1301.79,492.66 1293.38,498.179 1284.95,502.79C1278.88,506.108 1272.81,508.954 1266.77,511.386C1261.45,513.531 1256.16,515.35 1250.94,516.896C1245.42,518.53 1239.99,519.853 1234.66,520.913C1228.99,522.045 1223.44,522.88 1218.09,523.465C1212.27,524.102 1206.66,524.447 1201.35,524.571C1189.64,524.846 1179.35,524.048 1171.2,522.958C1158.79,521.298 1151.37,518.968 1151.55,518.75Z" style="fill:white;"/>
    </g>
    <g transform="matrix(-3.07631,0,0,3.09337,4220.29,11.9766)">
        <path d="M1151.55,518.75C1151.57,518.794 1159.08,521.062 1171.35,522.854C1179.57,524.052 1189.92,525.034 1201.59,524.996C1206.95,524.978 1212.58,524.746 1218.42,524.223C1223.83,523.738 1229.41,523 1235.1,521.956C1240.48,520.969 1245.95,519.707 1251.48,518.116C1256.75,516.598 1262.07,514.785 1267.38,512.62C1273.45,510.147 1279.52,507.218 1285.51,503.765C1293.88,498.948 1302.12,493.113 1310.03,486.059C1302.19,493.213 1294.02,499.158 1285.69,504.068C1279.71,507.593 1273.65,510.585 1267.59,513.113C1262.27,515.329 1256.95,517.19 1251.66,518.735C1246.12,520.355 1240.62,521.631 1235.22,522.616C1229.51,523.657 1223.9,524.369 1218.47,524.827C1212.62,525.321 1206.96,525.514 1201.59,525.489C1189.9,525.435 1179.54,524.349 1171.32,523.067C1159.06,521.153 1151.57,518.795 1151.55,518.75Z" style="fill:white;"/>
    </g>
    <defs>
        <linearGradient id="_Linear1" x1="0" y1="0" x2="1" y2="0" gradientUnits="userSpaceOnUse" gradientTransform="matrix(412.196,252.77,-149.021,243.01,1044.12,377.06)"><stop offset="0" style="stop-color:rgb(215,175,99);stop-opacity:1"/><stop offset="0.08" style="stop-color:rgb(171,140,75);stop-opacity:1"/><stop offset="0.13" style="stop-color:rgb(218,186,113);stop-opacity:1"/><stop offset="0.28" style="stop-color:rgb(184,148,77);stop-opacity:1"/><stop offset="0.36" style="stop-color:rgb(121,84,22);stop-opacity:1"/><stop offset="0.43" style="stop-color:rgb(140,98,30);stop-opacity:1"/><stop offset="0.56" style="stop-color:rgb(212,172,90);stop-opacity:1"/><stop offset="0.64" style="stop-color:rgb(217,179,100);stop-opacity:1"/><stop offset="0.67" style="stop-color:rgb(249,223,153);stop-opacity:1"/><stop offset="0.7" style="stop-color:rgb(221,184,106);stop-opacity:1"/><stop offset="0.85" style="stop-color:rgb(174,128,53);stop-opacity:1"/><stop offset="1" style="stop-color:rgb(170,123,46);stop-opacity:1"/></linearGradient>
        <linearGradient id="_Linear2" x1="0" y1="0" x2="1" y2="0" gradientUnits="userSpaceOnUse" gradientTransform="matrix(449.684,3.31346,3.31346,-449.684,1030.49,529.906)"><stop offset="0" style="stop-color:rgb(216,179,99);stop-opacity:1"/><stop offset="0.12" style="stop-color:rgb(198,160,83);stop-opacity:1"/><stop offset="0.49" style="stop-color:rgb(140,98,30);stop-opacity:1"/><stop offset="1" style="stop-color:rgb(227,193,118);stop-opacity:1"/></linearGradient>
        <linearGradient id="_Linear3" x1="0" y1="0" x2="1" y2="0" gradientUnits="userSpaceOnUse" gradientTransform="matrix(-92.8955,-251.469,251.469,-92.8955,1404.61,640.069)"><stop offset="0" style="stop-color:rgb(249,222,147);stop-opacity:1"/><stop offset="0.12" style="stop-color:rgb(184,148,77);stop-opacity:1"/><stop offset="0.53" style="stop-color:rgb(129,87,24);stop-opacity:1"/><stop offset="0.85" style="stop-color:rgb(217,179,100);stop-opacity:1"/><stop offset="0.91" style="stop-color:rgb(221,184,106);stop-opacity:1"/><stop offset="1" style="stop-color:rgb(227,193,118);stop-opacity:1"/></linearGradient>
        <linearGradient id="_Linear4" x1="0" y1="0" x2="1" y2="0" gradientUnits="userSpaceOnUse" gradientTransform="matrix(-69.4961,-251.35,316.669,-87.5561,1380.58,643.729)"><stop offset="0" style="stop-color:rgb(249,222,147);stop-opacity:1"/><stop offset="0.21" style="stop-color:rgb(184,148,77);stop-opacity:1"/><stop offset="0.52" style="stop-color:rgb(129,87,24);stop-opacity:1"/><stop offset="0.82" style="stop-color:rgb(217,179,100);stop-opacity:1"/><stop offset="0.89" style="stop-color:rgb(221,184,106);stop-opacity:1"/><stop offset="1" style="stop-color:rgb(227,193,118);stop-opacity:1"/></linearGradient>
        <linearGradient id="_Linear5" x1="0" y1="0" x2="1" y2="0" gradientUnits="userSpaceOnUse" gradientTransform="matrix(285.879,-203.366,256.215,360.17,1175.8,560.028)"><stop offset="0" style="stop-color:rgb(249,222,147);stop-opacity:1"/><stop offset="0.21" style="stop-color:rgb(184,148,77);stop-opacity:1"/><stop offset="0.52" style="stop-color:rgb(129,87,24);stop-opacity:1"/><stop offset="0.82" style="stop-color:rgb(217,179,100);stop-opacity:1"/><stop offset="0.89" style="stop-color:rgb(221,184,106);stop-opacity:1"/><stop offset="1" style="stop-color:rgb(227,193,118);stop-opacity:1"/></linearGradient>
        <linearGradient id="_Linear6" x1="0" y1="0" x2="1" y2="0" gradientUnits="userSpaceOnUse" gradientTransform="matrix(285.879,-203.366,256.215,360.17,1175.8,560.028)"><stop offset="0" style="stop-color:rgb(249,222,147);stop-opacity:1"/><stop offset="0.21" style="stop-color:rgb(184,148,77);stop-opacity:1"/><stop offset="0.52" style="stop-color:rgb(129,87,24);stop-opacity:1"/><stop offset="0.82" style="stop-color:rgb(217,179,100);stop-opacity:1"/><stop offset="0.89" style="stop-color:rgb(221,184,106);stop-opacity:1"/><stop offset="1" style="stop-color:rgb(227,193,118);stop-opacity:1"/></linearGradient>
    </defs>
</svg>
