<?xml version="1.0" encoding="UTF-8" standalone="no"?>
<!DOCTYPE svg PUBLIC "-//W3C//DTD SVG 1.1//EN" "http://www.w3.org/Graphics/SVG/1.1/DTD/svg11.dtd">
<svg width="100%" height="100%" viewBox="0 0 2500 2500" version="1.1" xmlns="http://www.w3.org/2000/svg" xmlns:xlink="http://www.w3.org/1999/xlink" xml:space="preserve" xmlns:serif="http://www.serif.com/" style="fill-rule:evenodd;clip-rule:evenodd;stroke-linejoin:round;stroke-miterlimit:2;">
    <g transform="matrix(2.2199,0,0,2.2199,-1327.59,-252.921)">
        <path d="M1028.03,390.787C1094.33,422.335 1128.93,448.696 1213.68,545.195C1245.69,577.21 1292.55,627.21 1358.43,639.486C1432.58,653.307 1491.66,608.243 1493.71,599.536C1493.71,599.536 1452.06,665.332 1358.9,665.332C1297.11,665.332 1218.93,605.145 1171.96,547.851C1118.38,482.494 1072.05,454.216 1072.05,454.216L1072.05,566.401L1028.97,591.489L1028.03,390.787Z" style="fill:url(#_Linear1);"/>
    </g>
    <g transform="matrix(-2.2199,0,0,2.2199,3866.07,-252.08)">
        <path d="M1028.03,390.787C1094.33,422.335 1128.93,448.696 1213.68,545.195C1245.69,577.21 1292.55,627.21 1358.43,639.486C1432.58,653.307 1491.66,608.243 1493.71,599.536C1493.71,599.536 1452.06,665.332 1358.9,665.332C1297.11,665.332 1218.93,605.145 1171.96,547.851C1118.38,482.494 1072.05,454.216 1072.05,454.216L1072.05,566.401L1028.97,591.489L1028.03,390.787Z" style="fill:url(#_Linear2);"/>
    </g>
    <g transform="matrix(2.2199,0,0,2.2199,-1327.59,-252.921)">
        <path d="M1323.2,424.085L1323.2,388.397C1419.73,365.999 1491.57,408.853 1517.09,494.219C1525.12,521.075 1516.98,562.711 1506.36,583.114C1477.73,638.135 1391.82,651.412 1345.45,636.542C1413.96,643.493 1495.03,583.705 1484.14,506.336C1467.88,423.845 1389.41,399.107 1323.2,424.085" style="fill:url(#_Linear3);"/>
    </g>
    <g transform="matrix(-2.2199,0,0,2.2199,3866.87,-251.87)">
        <path d="M1323.7,424.021L1323.7,388.333C1420.23,365.935 1491.57,408.853 1517.09,494.219C1525.12,521.075 1515.93,563.664 1505.31,584.067C1476.68,639.088 1391.6,651.293 1345.23,636.423C1413.75,643.374 1495.03,583.705 1484.14,506.336C1467.88,423.845 1389.9,399.044 1323.7,424.021" style="fill:url(#_Linear4);"/>
    </g>
    <g transform="matrix(-2.2199,0,0,2.2199,3866.87,-251.87)">
        <path d="M1323.7,424.021L1323.7,388.333C1420.23,365.935 1491.57,408.853 1517.09,494.219C1507.04,477.445 1494.72,455.324 1471.77,441.185C1435.3,418.719 1399.83,417.201 1383.94,416.3C1359.21,414.897 1355.25,413.943 1323.7,424.021" style="fill:url(#_Linear5);"/>
    </g>
    <g transform="matrix(2.2199,0,0,2.2199,-1327.79,-253.675)">
        <path d="M1323.2,424.085L1323.2,388.397C1419.73,365.999 1491.57,408.853 1517.09,494.219C1507.04,477.445 1494.72,455.324 1471.77,441.185C1435.3,418.719 1399.83,417.201 1383.94,416.3C1359.21,414.897 1354.76,414.007 1323.2,424.085" style="fill:url(#_Linear6);"/>
    </g>
    <g transform="matrix(2.01363,0,0,2.02479,-1079.59,-153.672)">
        <path d="M1144.46,574.399C1146.51,572.497 1154.01,564.056 1163.85,553.04C1167.81,548.598 1172.15,543.736 1176.66,538.715C1178.43,536.752 1180.22,534.763 1182.02,532.762C1183.8,530.784 1185.59,528.798 1187.37,526.81C1190.98,522.788 1194.59,518.78 1198.12,514.936C1201.33,511.432 1204.48,508.057 1207.49,504.914C1213,499.166 1218.07,494.191 1222.3,490.617C1216.71,494.998 1209.64,501.586 1202.07,509.228C1197.94,513.396 1193.66,517.87 1189.39,522.469C1186.91,525.149 1184.43,527.874 1182,530.604C1178.27,534.789 1174.63,538.986 1171.16,543.023C1168.35,546.284 1165.66,549.448 1163.14,552.434C1153.62,563.714 1146.45,572.433 1144.46,574.399Z" style="fill:rgb(247,240,223);"/>
    </g>
    <g transform="matrix(2.01363,0,0,2.02479,-1823.39,-298.261)">
        <path d="M1153.15,564.766C1162.06,549.549 1170.03,537.689 1178.8,527.912C1184.9,521.104 1191.4,515.316 1198.91,510.113C1203.6,506.857 1208.69,503.821 1214.32,500.922C1219.72,498.109 1225.48,495.626 1231.4,493.401C1240.17,490.104 1249.31,487.412 1258.25,485.31C1264.55,483.831 1270.74,482.631 1276.64,481.704C1287.36,480.02 1297.09,479.226 1304.64,479.245C1297.08,479.052 1287.31,479.604 1276.54,481.06C1270.61,481.863 1264.36,482.937 1258.02,484.315C1248.99,486.279 1239.75,488.836 1230.9,492.083C1224.91,494.281 1219.11,496.813 1213.65,499.642C1207.98,502.616 1202.86,505.709 1198.15,509.052C1190.63,514.39 1184.15,520.336 1178.11,527.316C1169.49,537.268 1161.78,549.335 1153.15,564.766Z" style="fill:rgb(244,212,140);"/>
    </g>
    <g transform="matrix(-2.01363,0,0,2.02479,4362.13,-299.854)">
        <path d="M1153.15,564.766C1161.79,549.348 1169.53,537.292 1178.15,527.351C1184.2,520.381 1190.68,514.445 1198.2,509.114C1202.9,505.777 1208.02,502.687 1213.69,499.717C1219.14,496.889 1224.94,494.36 1230.93,492.16C1239.78,488.91 1249.01,486.346 1258.04,484.374C1264.38,482.989 1270.61,481.908 1276.55,481.098C1287.31,479.628 1297.08,479.062 1304.64,479.245C1297.09,479.216 1287.35,479.996 1276.63,481.666C1270.73,482.585 1264.54,483.778 1258.24,485.251C1249.29,487.345 1240.14,490.029 1231.37,493.324C1225.44,495.546 1219.68,498.033 1214.28,500.847C1208.64,503.75 1203.56,506.79 1198.86,510.051C1191.36,515.262 1184.86,521.059 1178.76,527.877C1170,537.664 1162.05,549.536 1153.15,564.766Z" style="fill:rgb(244,212,140);"/>
    </g>
    <g transform="matrix(2.01363,0,0,2.02479,-660.487,109.414)">
        <path d="M1151.55,518.75C1151.36,518.965 1158.76,521.411 1171.16,523.229C1179.31,524.423 1189.62,525.351 1201.36,525.194C1206.69,525.123 1212.32,524.827 1218.17,524.228C1223.55,523.676 1229.13,522.874 1234.83,521.745C1240.18,520.687 1245.64,519.347 1251.18,517.677C1256.41,516.097 1261.7,514.217 1267.03,512.011C1273.06,509.51 1279.12,506.586 1285.17,503.177C1293.55,498.45 1301.88,492.789 1310.03,486.059C1301.77,492.633 1293.35,498.123 1284.9,502.71C1278.83,506.009 1272.75,508.838 1266.72,511.256C1261.4,513.387 1256.11,515.194 1250.89,516.733C1245.38,518.359 1239.94,519.679 1234.63,520.74C1228.96,521.872 1223.42,522.714 1218.07,523.306C1212.25,523.95 1206.65,524.306 1201.35,524.441C1189.64,524.74 1179.35,523.969 1171.21,522.902C1158.79,521.274 1151.37,518.968 1151.55,518.75Z" style="fill:white;"/>
    </g>
    <g transform="matrix(-2.01363,0,0,2.02479,3199.91,110.366)">
        <path d="M1151.55,518.75C1151.57,518.794 1159.08,521.038 1171.36,522.797C1179.58,523.974 1189.92,524.929 1201.59,524.866C1206.94,524.837 1212.57,524.594 1218.4,524.063C1223.81,523.572 1229.38,522.826 1235.07,521.782C1240.44,520.794 1245.91,519.536 1251.43,517.953C1256.7,516.442 1262.01,514.642 1267.33,512.49C1273.39,510.031 1279.46,507.12 1285.47,503.686C1293.84,498.892 1302.1,493.087 1310.03,486.059C1302.21,493.239 1294.05,499.214 1285.74,504.147C1279.76,507.692 1273.71,510.701 1267.64,513.244C1262.32,515.472 1257,517.346 1251.71,518.899C1246.16,520.526 1240.66,521.806 1235.25,522.79C1229.53,523.831 1223.92,524.536 1218.48,524.987C1212.62,525.472 1206.97,525.655 1201.59,525.619C1189.89,525.54 1179.53,524.428 1171.31,523.123C1159.05,521.177 1151.57,518.795 1151.55,518.75Z" style="fill:white;"/>
    </g>
    <defs>
        <linearGradient id="_Linear1" x1="0" y1="0" x2="1" y2="0" gradientUnits="userSpaceOnUse" gradientTransform="matrix(412.196,252.77,-149.021,243.01,1044.12,377.06)"><stop offset="0" style="stop-color:rgb(215,175,99);stop-opacity:1"/><stop offset="0.08" style="stop-color:rgb(171,140,75);stop-opacity:1"/><stop offset="0.13" style="stop-color:rgb(218,186,113);stop-opacity:1"/><stop offset="0.28" style="stop-color:rgb(184,148,77);stop-opacity:1"/><stop offset="0.36" style="stop-color:rgb(121,84,22);stop-opacity:1"/><stop offset="0.43" style="stop-color:rgb(140,98,30);stop-opacity:1"/><stop offset="0.56" style="stop-color:rgb(212,172,90);stop-opacity:1"/><stop offset="0.64" style="stop-color:rgb(217,179,100);stop-opacity:1"/><stop offset="0.67" style="stop-color:rgb(249,223,153);stop-opacity:1"/><stop offset="0.7" style="stop-color:rgb(221,184,106);stop-opacity:1"/><stop offset="0.85" style="stop-color:rgb(174,128,53);stop-opacity:1"/><stop offset="1" style="stop-color:rgb(170,123,46);stop-opacity:1"/></linearGradient>
        <linearGradient id="_Linear2" x1="0" y1="0" x2="1" y2="0" gradientUnits="userSpaceOnUse" gradientTransform="matrix(449.684,3.31346,3.31346,-449.684,1030.49,529.906)"><stop offset="0" style="stop-color:rgb(216,179,99);stop-opacity:1"/><stop offset="0.12" style="stop-color:rgb(198,160,83);stop-opacity:1"/><stop offset="0.49" style="stop-color:rgb(140,98,30);stop-opacity:1"/><stop offset="1" style="stop-color:rgb(227,193,118);stop-opacity:1"/></linearGradient>
        <linearGradient id="_Linear3" x1="0" y1="0" x2="1" y2="0" gradientUnits="userSpaceOnUse" gradientTransform="matrix(-92.8955,-251.469,251.469,-92.8955,1404.61,640.069)"><stop offset="0" style="stop-color:rgb(249,222,147);stop-opacity:1"/><stop offset="0.12" style="stop-color:rgb(184,148,77);stop-opacity:1"/><stop offset="0.53" style="stop-color:rgb(129,87,24);stop-opacity:1"/><stop offset="0.85" style="stop-color:rgb(217,179,100);stop-opacity:1"/><stop offset="0.91" style="stop-color:rgb(221,184,106);stop-opacity:1"/><stop offset="1" style="stop-color:rgb(227,193,118);stop-opacity:1"/></linearGradient>
        <linearGradient id="_Linear4" x1="0" y1="0" x2="1" y2="0" gradientUnits="userSpaceOnUse" gradientTransform="matrix(-69.4961,-251.35,316.669,-87.5561,1380.58,643.729)"><stop offset="0" style="stop-color:rgb(249,222,147);stop-opacity:1"/><stop offset="0.21" style="stop-color:rgb(184,148,77);stop-opacity:1"/><stop offset="0.52" style="stop-color:rgb(129,87,24);stop-opacity:1"/><stop offset="0.82" style="stop-color:rgb(217,179,100);stop-opacity:1"/><stop offset="0.89" style="stop-color:rgb(221,184,106);stop-opacity:1"/><stop offset="1" style="stop-color:rgb(227,193,118);stop-opacity:1"/></linearGradient>
        <linearGradient id="_Linear5" x1="0" y1="0" x2="1" y2="0" gradientUnits="userSpaceOnUse" gradientTransform="matrix(285.879,-203.366,256.215,360.17,1175.8,560.028)"><stop offset="0" style="stop-color:rgb(249,222,147);stop-opacity:1"/><stop offset="0.21" style="stop-color:rgb(184,148,77);stop-opacity:1"/><stop offset="0.52" style="stop-color:rgb(129,87,24);stop-opacity:1"/><stop offset="0.82" style="stop-color:rgb(217,179,100);stop-opacity:1"/><stop offset="0.89" style="stop-color:rgb(221,184,106);stop-opacity:1"/><stop offset="1" style="stop-color:rgb(227,193,118);stop-opacity:1"/></linearGradient>
        <linearGradient id="_Linear6" x1="0" y1="0" x2="1" y2="0" gradientUnits="userSpaceOnUse" gradientTransform="matrix(285.879,-203.366,256.215,360.17,1175.8,560.028)"><stop offset="0" style="stop-color:rgb(249,222,147);stop-opacity:1"/><stop offset="0.21" style="stop-color:rgb(184,148,77);stop-opacity:1"/><stop offset="0.52" style="stop-color:rgb(129,87,24);stop-opacity:1"/><stop offset="0.82" style="stop-color:rgb(217,179,100);stop-opacity:1"/><stop offset="0.89" style="stop-color:rgb(221,184,106);stop-opacity:1"/><stop offset="1" style="stop-color:rgb(227,193,118);stop-opacity:1"/></linearGradient>
    </defs>
</svg>
